Coordinates
version=1
nRows=21
nColumns=12
inDegrees=yes

Units are S.I. units (second, meters, Newtons, ...)
Angles are in degrees

endheader
time	SC_y	SC_z	SC_x	AC_y	AC_z	AC_x	GH_y	GH_z	GH_yy	EL_x	PS_y
       0.0               -18.8          14.85          62.28          40.39          9.834          2.467         -132.2          2.279          77.51          102.3          19.89
   0.02595               -18.8          14.85          62.27          40.39           9.83          2.466         -132.2          2.287           77.5          102.3           19.9
    0.0519               -18.8          14.85          62.26          40.39          9.826          2.465         -132.1          2.296          77.49          102.3          19.91
   0.07785              -18.81          14.85          62.25          40.39          9.822          2.464         -132.1          2.306          77.48          102.3          19.92
    0.1038              -18.81          14.85          62.24          40.39          9.817          2.463         -132.1          2.316          77.47          102.3          19.93
    0.1298              -18.82          14.85          62.24          40.39          9.812          2.462         -132.1          2.327          77.45          102.3          19.95
    0.1557              -18.82          14.85          62.23           40.4          9.807           2.46         -132.1          2.339          77.44          102.3          19.96
    0.1817              -18.83          14.85          62.21           40.4          9.801          2.459         -132.0          2.351          77.42          102.3          19.98
    0.2076              -18.83          14.85           62.2           40.4          9.795          2.458         -132.0          2.364           77.4          102.3          19.99
    0.2336              -18.84          14.85          62.19           40.4          9.788          2.456         -132.0          2.379          77.38          102.2          20.01
    0.2595              -18.85          14.85          62.18           40.4          9.781          2.454         -131.9          2.394          77.36          102.2          20.03
    0.2855              -18.85          14.85          62.16           40.4          9.774          2.452         -131.9          2.411          77.34          102.2          20.05
    0.3114              -18.86          14.85          62.15          40.41          9.765           2.45         -131.9          2.428          77.32          102.2          20.08
    0.3374              -18.87          14.84          62.13          40.41          9.757          2.448         -131.8          2.448          77.29          102.2           20.1
    0.3633              -18.88          14.84          62.11          40.41          9.747          2.446         -131.8          2.468          77.26          102.2          20.13
    0.3893              -18.89          14.84          62.09          40.41          9.737          2.444         -131.7          2.491          77.23          102.1          20.16
    0.4152               -18.9          14.84          62.07          40.42          9.725          2.441         -131.7          2.515           77.2          102.1          20.19
    0.4412              -18.91          14.84          62.05          40.42          9.713          2.438         -131.6          2.542          77.17          102.1          20.22
    0.4671              -18.92          14.84          62.02          40.42          9.699          2.435         -131.6          2.571          77.13          102.1          20.26
    0.4931              -18.94          14.84          61.99          40.43          9.685          2.431         -131.5          2.603          77.08          102.0           20.3
     0.519              -18.95          14.84          61.96          40.43          9.669          2.427         -131.4          2.638          77.04          102.0          20.34
